<?xml version="1.0" encoding="UTF-8" standalone="no"?>
<!-- Created with Inkscape (http://www.inkscape.org/) -->

<svg
   width="102.35938mm"
   height="96.642258mm"
   viewBox="0 0 102.35938 96.642258"
   version="1.1"
   id="svg1"
   inkscape:version="1.4.2 (ebf0e940, 2025-05-08)"
   sodipodi:docname="paperdeformation.svg"
   xmlns:inkscape="http://www.inkscape.org/namespaces/inkscape"
   xmlns:sodipodi="http://sodipodi.sourceforge.net/DTD/sodipodi-0.dtd"
   xmlns="http://www.w3.org/2000/svg"
   xmlns:svg="http://www.w3.org/2000/svg">
  <sodipodi:namedview
     id="namedview1"
     pagecolor="#ffffff"
     bordercolor="#000000"
     borderopacity="0.25"
     inkscape:showpageshadow="2"
     inkscape:pageopacity="0.0"
     inkscape:pagecheckerboard="0"
     inkscape:deskcolor="#d1d1d1"
     inkscape:document-units="mm"
     inkscape:zoom="0.83826546"
     inkscape:cx="113.92572"
     inkscape:cy="178.34446"
     inkscape:window-width="1472"
     inkscape:window-height="892"
     inkscape:window-x="0"
     inkscape:window-y="64"
     inkscape:window-maximized="0"
     inkscape:current-layer="layer1" />
  <defs
     id="defs1" />
  <g
     inkscape:label="Layer 1"
     inkscape:groupmode="layer"
     id="layer1"
     transform="translate(-32.119508,-76.903705)">
    <path
       style="fill:none;stroke:#000000;stroke-width:1.5;stroke-linejoin:round;stroke-dasharray:none"
       d="m 62.386892,77.763545 71.342098,-0.10984 -29.5175,29.142495 -71.34209,0.10984 z"
       id="path1"
       sodipodi:nodetypes="ccccc" />
    <path
       style="fill:none;stroke:#000000;stroke-width:1.5;stroke-linejoin:round;stroke-dasharray:none"
       d="m 122.26176,136.5705 c 0,0 -12.82225,11.10784 -32.866305,10.90344 C 73.605383,147.31292 58.310999,136.5705 58.310999,136.5705 L 32.99175,161.88974 c 0,0 15.294384,10.74242 31.084456,10.90344 20.044052,0.2044 32.866311,-10.90344 32.866311,-10.90344"
       id="path2"
       sodipodi:nodetypes="csccsc" />
    <path
       style="fill:#808080;fill-opacity:1;stroke:#808080;stroke-width:1.5;stroke-linejoin:round;stroke-dasharray:1.5, 1.5;stroke-dashoffset:0"
       d="M 56.012553,99.577873 101.7489,84.814875"
       id="path7" />
    <path
       style="fill:none;fill-opacity:1;stroke:#808080;stroke-width:1.5;stroke-linejoin:round;stroke-dasharray:1.5, 1.5;stroke-dashoffset:0"
       d="m 49.404481,161.87851 c 0,0 9.526037,2.15619 22.599921,0.1752 11.988961,-1.8166 18.745672,-9.28525 18.745672,-9.28525"
       id="path8"
       sodipodi:nodetypes="csc"
       transform="translate(-1.1458333e-6)" />
    <path
       style="fill:none;stroke:#000000;stroke-width:1.5;stroke-linejoin:round;stroke-dasharray:none"
       d="M 96.942518,161.88974 122.26189,136.5705"
       id="path2-2" />
    <path
       style="fill:#000000;fill-opacity:1;stroke:#000000;stroke-width:1.5;stroke-linejoin:round;stroke-dasharray:none"
       d="m 53.276139,97.457241 6.347209,4.894199"
       id="path3"
       sodipodi:nodetypes="cc" />
    <path
       style="fill:#000000;fill-opacity:1;stroke:#000000;stroke-width:1.5;stroke-linejoin:round;stroke-dasharray:none"
       d="m 51.784964,101.61738 8.561301,-3.745092"
       id="path4"
       sodipodi:nodetypes="cc" />
    <path
       style="fill:#000000;fill-opacity:1;stroke:#000000;stroke-width:1.5;stroke-linejoin:round;stroke-dasharray:none"
       d="m 99.063315,82.58998 6.347215,4.894199"
       id="path3-9"
       sodipodi:nodetypes="cc" />
    <path
       style="fill:#000000;fill-opacity:1;stroke:#000000;stroke-width:1.5;stroke-linejoin:round;stroke-dasharray:none"
       d="m 97.57214,86.750119 8.5613,-3.745092"
       id="path4-3"
       sodipodi:nodetypes="cc" />
    <path
       style="fill:none;fill-opacity:1;stroke:#000000;stroke-width:1.5;stroke-linejoin:round;stroke-dasharray:none"
       d="m 88.201966,150.77954 c 0,0 1.400164,1.54714 3.37504,2.24496 1.974871,0.69782 3.796131,0.55566 3.796131,0.55566"
       id="path5"
       sodipodi:nodetypes="csc" />
    <path
       style="fill:none;fill-opacity:1;stroke:#000000;stroke-width:1.5;stroke-linejoin:round;stroke-dasharray:none"
       d="m 86.853065,153.62059 c 0,0 2.322061,0.94402 4.683297,-0.57016 2.307972,-1.48003 3.456201,-2.60663 3.456201,-2.60663"
       id="path6"
       sodipodi:nodetypes="csc" />
    <path
       style="fill:none;fill-opacity:1;stroke:#000000;stroke-width:1.5;stroke-linejoin:round;stroke-dasharray:none"
       d="m 45.947472,160.24621 c 0,0 1.400164,1.54714 3.37504,2.24496 1.974871,0.69782 3.796131,0.55566 3.796131,0.55566"
       id="path5-5"
       sodipodi:nodetypes="csc" />
    <path
       style="fill:none;fill-opacity:1;stroke:#000000;stroke-width:1.5;stroke-linejoin:round;stroke-dasharray:none"
       d="m 44.598571,163.08726 c 0,0 2.322061,0.94402 4.683297,-0.57016 2.307972,-1.48003 3.456201,-2.60663 3.456201,-2.60663"
       id="path6-6"
       sodipodi:nodetypes="csc" />
  </g>
</svg>
